<mxfile host="app.diagrams.net" modified="2023-12-13T09:35:59.889Z" agent="Mozilla/5.0 (X11; Linux x86_64) AppleWebKit/537.36 (KHTML, like Gecko) Chrome/120.0.0.0 Safari/537.36" etag="qccr6--i0DLnXATas1bd" version="22.1.8" type="github">
  <diagram name="Page-1" id="mU_WS5FCG8j6y9cLW7Bh">
    <mxGraphModel dx="1774" dy="952" grid="1" gridSize="10" guides="1" tooltips="1" connect="1" arrows="1" fold="1" page="1" pageScale="1" pageWidth="827" pageHeight="1169" math="0" shadow="0">
      <root>
        <mxCell id="0" />
        <mxCell id="1" parent="0" />
        <mxCell id="z3T6Kc_sz7TtANk57Cug-27" style="edgeStyle=none;rounded=0;orthogonalLoop=1;jettySize=auto;html=1;entryX=0;entryY=0.5;entryDx=0;entryDy=0;" edge="1" parent="1" source="z3T6Kc_sz7TtANk57Cug-1" target="z3T6Kc_sz7TtANk57Cug-18">
          <mxGeometry relative="1" as="geometry">
            <mxPoint x="43.335000000000036" y="620" as="targetPoint" />
            <Array as="points">
              <mxPoint x="49" y="613" />
            </Array>
          </mxGeometry>
        </mxCell>
        <mxCell id="z3T6Kc_sz7TtANk57Cug-29" style="edgeStyle=none;rounded=0;orthogonalLoop=1;jettySize=auto;html=1;entryX=0.017;entryY=0.583;entryDx=0;entryDy=0;entryPerimeter=0;" edge="1" parent="1" source="z3T6Kc_sz7TtANk57Cug-1" target="z3T6Kc_sz7TtANk57Cug-34">
          <mxGeometry relative="1" as="geometry">
            <mxPoint x="240" y="410" as="targetPoint" />
          </mxGeometry>
        </mxCell>
        <mxCell id="z3T6Kc_sz7TtANk57Cug-39" style="edgeStyle=none;rounded=0;orthogonalLoop=1;jettySize=auto;html=1;exitX=0.5;exitY=0;exitDx=0;exitDy=0;" edge="1" parent="1" source="z3T6Kc_sz7TtANk57Cug-1" target="z3T6Kc_sz7TtANk57Cug-38">
          <mxGeometry relative="1" as="geometry">
            <mxPoint x="250" y="320" as="targetPoint" />
            <Array as="points">
              <mxPoint x="49" y="170" />
            </Array>
          </mxGeometry>
        </mxCell>
        <mxCell id="z3T6Kc_sz7TtANk57Cug-1" value="" style="shape=image;verticalLabelPosition=bottom;labelBackgroundColor=default;verticalAlign=top;aspect=fixed;imageAspect=0;image=data:image/png,iVBORw0KGgoAAAANSUhEUgAAASIAAACuCAMAAAClZfCTAAAAw1BMVEX///8lLz7/mQD/lwD/kgD/lAAAEin/kQAfKjoKGy8NHTAAFSsiLDzd3uAaJjcAFywVIjStr7MACCQXJDXq6+y2uLvExsnMzdCdoKUAACJma3T/3LiHi5EAByTz9PW+wMP/9+3X2NovOEZXXWdIT1r/796Ul52ipKlzeH/k5eb/wX//2LD/nxv/5cr/yI//s1s9RVH/r1L/7Nj/06X/qUFDS1ZwdX3/wHv/nxj/pTT/zJf/tmJ/g4phZ28AABxSWGL/4sNAIPdSAAAUP0lEQVR4nO1diVLqShAVCdmI7JuyRWRzAURQZHv6/1/1kkBgumcNF+Xq5VS9qleXZDJz0t3T28SLizOOhcJtsddd9W88vPVrlWzpqnHqKUVHodRb3Xw8x0wz1mqv+5Xi7ZEWcV9cta1c0rIz+VQqZXr/ZTJ2Wq+3bnq3x3nCd6CQvTFzaTufMp0AppnKWHqu9Vb5w0UUiv1Yzs6bMQaclK2n+mX+zffZPZoFlcc1ysXwhmJJ7Q3fN/cP4c6lkW3nrJTDWYS9zirNjvX0yitnYOIJeqzCWcvtf5a9Q/q6L39gN5nc35LOdeV3FLyl7x/yX4V9Uc2ymC85hGnn2ln5wzA84vWMcOCQJdtmz6ybAdfp7KsIFOtw5Lp82m3wDPOZdU1NhxNhs2RZCm+ERKGWtlX42cBqsfQZURRLyh7aQgLrxGR3lHS4zlfGJSlbcRW2KTAaGI1+XYF4cjHXjFdQSiMim+KnXuXwsLrMkt6kwPWpN+qKVU5oKOAq6pIZ7tG8zkciyEf6hhqmAV8xawEAPep12z3JTNETbKyZjWdVEdqgrmi2y/9FJsif3poaqI1UNS1+LhIJDymadzjTJLxeRyu8T6kbi80ipPZygzdqqmrDU1sWFgv9SvjcDK0SElKRtcOmqKC03ZCQvZMQz1EHDhnAanEl0wOAe50xpJjUDzjTDJSBRizyQsw7NYrwxqKM3D0aKQZHEr+jIsNsiEm9uIZXI0I/BNrAWeKfUOSYedu20mnLc9QyPG/SbKORasjsZ0SPXTFWlBL6m2W4ZTot8GslTY8XMzNWUq+nM2bGzuX0pIXWcihFKTtZj61XvWyzVCo1i9nu27P3EBZNOto0KXMq0hvWm3VM0USRKcrUyB/vr6nRTKve7hZvQ5veuL8tdm8cL4D4I4qcTDJ31ytTIUa5ayZpTUfvkd6UBZt4oU4NF6P3KABkNKEXdYen5+ivRVaoVGj208nUgRSZtt7qcj3O0istyckSvAZtjibtGOzQtFgUidzNBnQ1HaDGZeyHZloC37ncT9r+qlV3tA1FTkZ/rmD7C5FNYt3AbwGvW2CMsN3a3lDj34G89/yK/HGNhMiS+K2NbEvPmzmZr7qF7/GlrHxNvOH6uMpjjq6hYjTwnsOPKNiuhsMMTDdApKZJCS4gFc9LGPJRXrUFLwQg+19SvysqXXqF7DG1SyOLwDdGOFoJkeRnjZ7h+6mDNUAPQh4QR8QtbZ55yCJ7hK0NmirfGOHNbycbXAuCBAWaERTMWGpv/GuA9cOCP98jq8k1RuQGTg6Z4WZxkJ2DLCAPwuIN8h1oIjHC1gZpA9cYERpp3hA3mB+8J6+gKbomJb8hkrBvB/IhLWSMkHvHNUaEQtpN0oLZvAdDDxdSiaJDvih+C2oiF9eza+h9cnwz8jK9QPLKkztkiuA+gSybJNT7aiDvhPJPTShlHKEg8iaOA4IvntwVoSnKAW8DTerEFDVg4EDFIMhkcISC2IE8w9EghIC3CfbBnoUS+4iiEysalfFAP+PZsvN6zn4QX2yIfZIXyUJThEhAOQDztOYau/pp5FM1oEKwA0UynebLGWng2OkBlIBDF+FknrT48rXAmoRjc0Qhc7ZkOs23VqTPwzYkWcA8Vu8GckSldYKvRQVVFHHoCxcTS7Lc5RVK2ZDbFTutBnMIVLSLc176SZs0UIxBUYR2Z6YxIla0+Z34B2oDCOAADije+yiFya7TfheQlNCm4xVoGssYFYgwZbNaUntzjLQaNDZOHv9exNmn1POhnQ1HQFFGEdLEHD0EaXo2KkEOykqrQdGldZFOHJjp0zlHUorQ9sIwRkTmZ1siIDcsVloNRvJpmkRGMTDZjlCzPyqkFCHPieHHEWXb8FciWcdqZoD2DzsaHm6pBgFvIL19mqSInCLoFtCxO6kVYe6QlIIcxQCM/JgOOJXeD65Mp2on6KyTU4SCymvqd8IXDnMapLGh02qwFM70nK7oIpEPJ6+3ul/A0lWzV+uvP16f2x/r/qoLe0HlFF1IjBFhz3c7PGnAaNVcA0vDriTVeE0hTkZPrY5plkq115xu2ZmUGSCVymestK7bd6vs5mUoUASNK7ViQif2ppkYlVZNYGioIvAWgt4EJ59M90vs2yKi9JZLctorzLyVvH5eZe9RLZ5FEWSRWhKhh/sNnqQV+wm3QHN50cW9LmxOSKXrN8zaYxRkY7qkj8bJW7pChwyqFaFogLS9ezeRNDdJZDygp0V1W4QoMwu8JEtW7i77ByxlTeuQFhFmYA67XJAxItNp+2IOSRyWEzAcO0AJ0JR38ZlWbq3cvgdx36ZKrX9AEdyBkDEi02mEm0xsczjfUxeMBlC2FNrJzLTD64sWIasf2IfFpgjWipAvSCZCCNeOdGxgBgUmzIQ9o4VXZqsAgmNH7Sj2AmVObfRQilByApRYyViDNCsVbloNVFUcnOZE6NaV+hJtM5q6fUTrM1WgCNZJQPmd2BFBEpZ0OGHpCbSZwm4HBgo31yokOXqU7O1HtKZrFYrKQCxBYEqk00DbMZk5BKE8jOL5Fe0drm7qzI4xhHxMOV+y5jDkeF5jgLx/HCcaRReghwQYIyLIhZEEsW+BtgVYMJA01W5Q6KaSVBcLBVPaCr9Fl9kjaOtW625V61YqlW5tddNuZfS0nWEwxaEIpgEJY0Sm0/gmh4wxgNLK+t13KK9MXSZLDpUyZYKVRcjr7R4+3dYolLO1j5SOt1UORbBJgTBG5A+wKYKUFjKtBgIL2akJsLRuKyc+2WLGVHb/FjWGqa/45N4XUZqYQxGsSeT3xohIp6FqdoOdVoOmKGLe/r7SzokOXuUVbHaP8iPsD7H0iStaO9yRTBLGiMhs48w/IS5Eeh7II69HQIBCdk2JPjF9uVTaWF11WXPblRpFMNu8e/mkdOEsCWl09tYLJOgOq9Y3mm9Wms2S48huzmKPKC1t/1OkCArbzhgB7wcpDSkv+70ddCyxqiNqKL3VKXEIJiEjnWpLF7QBb6FIEbSyO9tC+NBUWqjASquBshwrra2MRi+WpkmStUVSp+ZsuTVUpQiEDTvbckdn9vcgXtiOP5B74jRRKKPo0D6gLvZFUclL6XwWzG/xKYIp+TBlTzwwTaUBSbNjM/5NdtJIASsqGhW1el/QZQNBS+8OqFGFP2vgZ279GZI3+mGkxISeLzh+wU8VKaOJOZIMii5XOhKhkLveALz/rWdEJJIYZfd7Oq0G0iqSF66GIuaIrklxpkRMS4yePHe9AYittm35RDqNtV5C8LbFMpApV42pxMCFW5wGBkA6w7AODKh51z7AC9ic1CViWFYoQcx+myghn0Z3OxyEAtqjhDEN7qdQsobokLDgnjUVXJFqw6qGkW7aZmCyaSYlSxUpAlblxO4odhyFp8FCoKqnIH8D2myCVFiRmdnfg3QogpkDU6Qk5ApApkK4jeM9X4UifHhD8A5ArSighLDg7OwhoflBWg28RF0+OyWodaxucAhFNexKCcQUNGP5xogIJtgnWW6ItJq/GZMFyKMdW0CenXCTqkQ7WB8AnwASvQPwCjxOQDqNmU8gdcCPx2w4wHGAdinhuNgWWXJlx99OEfoqIL7xNIufTgtBupaegQfBzvWxWjzRLiXMhlPnNKXxBz49KMmUks1YnjEi02mc2whSPfJJoeKfMYqKmqTnlwRSSoVZvFIZPNFRTTgZvUEk8Hkm7A6k1Ui34Xi91Oj8gXAXoGRCFqO9MYoljK66HcD2Z2elPfrQfOWA86n6lRgpSlAwRMfAL3ALoTTSf2NVg4WqDB5ARqS8IwgkqZkuEeUdr5Ma9SFJpJP6Po4wX7RmFm2F5VHeV234r4608GonQj2U79YVVSFboVVci2+k8rKC9PlVi1OS5J5DvGC0jIf3cF8d/ghSCJFD0silzEz9Tsn5rkW0vwWqh5L+KtEW3Ryv1iLK/nLPmnOja8qr2ECY1dm4CmYyJhWlxhoXVnUZsfQ7s1gq0OiZ/M4IoZX4YBPL30XwF9m2EKaKQgPmZHLtnmALb1RsrPhyE9ekj8vnU0gq/BILWTygzIso+0t/MC2YGF+6G4zqcIxzICkEYeP97570i8yvvZZXNj2ZujwFxfhEjmNltg9pFG6LtdckLNRZ2N5xW1h9sL51Jba9zMZXcaoIhtbBB0Cf+91i6apQaHgoXPm1divJ+EpJRiG/QqUpA6QsPWlZfjOxhT+mmqzBQqsPkRgxv7ElkgkcJ28mJP72E60LTsr/Lq6uJz3oeppaxgam0oczeDsIB+kVo1NCVN5iml9RZZ751R7GwRgxRWrIKVVU6KhLhGQgmNR5C4FvccsYX6SZVN40gMiFP5yiumKOrsi2j0xsv5RLVSj/E2y2jC+x5YWVDIZqSoIEJqtyXCtnV7qqcuTkwr2uDy2fLUp24TOZMVmTEOM7dLJuB45rIVlNhFalmhpHmdhug2yADoK00EHFH2KJybKbDI9clg69it4TnXEiVXa77INKAE6O3FSae9E2c5IsE30mU9y8gD/wo5KkuW+p9FuTq7mJmKBrSg9/WDG4T6/CKVmvsn5Bahe3JJkfyjNKKhiNXjLC+YyoXdc+GmtuCBYQRIedH4E5Mq/ljRKNOhzaFH4R00MJHXfJq5Xyey1p/+fm+Vb6sAaT8itHkvxzgSxr2U6mUslnlZbTq1YumQ6RzMnv6V37jusW6VxbVSduazFd8mVz/8ODhx+9Lr+l08gJDf4iwYoTxmTv1qq75n25FKKsktdplJvFEE2lxt8QV721F36wP/nqr6bV/cP+m1LtNaP7fzIg439hVtd/1t+1CHHb67csv008lTLN8A9ceOFI7CYbiW4u7svNbKXS6xV/5F9HCdG4KvW6/XX79bn1/Ny+63ezSuJ7xhlnnHHGGWecccYZZ5xxxhlnnHHGGWecERnuy+fj8GG2HPtYzh4W1YF76jn9Peg8PkzjmqYlEvEdEomE9w/z2aN76tmdHJ3JKK751Fyy4FFlPC3cU0/yhOgMn4wEmxyCpoQxPPVET4XHqZyfDf5NjtxFXFPjxxeky+CeYUIbv5x43t+HRUJRgLZi1PHuGRgeWcbSPfXcvwXVy0QEfjxoA/8uLZCoxOLU0/96uGMjigQFFFX9+7aambh8PPUSvhgvkVRsg0RASnVLbVx7+jzxIr4Wl4Ch0E8MwfaQEtXg1kFo4ePG9Bfb7U9jS4zvPmuJy3kQbUweA0yGs+VTQqPkTPvc3NzZERg3xp2TruML4cYNn5ilH4R1XOYlnckcOQSBuQ7uftr94G1uv5akFw4zJAZPgCNtT8Z4vxn+ZpJUAEyWQfwwMwhLpv3LJE0I12nrXYe/kD5D3Bj9YsMtRkcjeJiCnwbAnHu724Azxm8HSdEM/uQ+Ae/c85Oqp5njiUFQlJjgH0faJSTp8h8ISygQJGi0uVmgIMZzsx7c75/kSeGSUsT4fUC54Qlj/KuN0uCx6oJ/IMw1stZbuFMNceQbpYnLuvbnw11cagkN5hYHewISnKTjkM4YePq2/IVOwGC5DcoAR4RfpPH0h1a2QJTmlHX/0XAnT/t4jLQ5y/3q4/zbx5SyBaKkLX+NVfocgajecPc/ve/j1ZFghAk7A+55AcNfEJp0hjjDT0gRsaFpwiSjO2cJUlBbmv9s2+1O5lSJKEE40Z8ERa54KIbV3rE0/rHV3OqYUUJLzIkrHvZ6NpaN1plzqwWeWRr9QJaqI41hQOLGkrxony/SFOIvriD5A2s/iyW3OkowDWw8AZggHEeWa02hw7FIO1maTn6E9XYnY5b8BKIydcGle68IR/k8cLY2gqWnh7/cE3hZzOm0/U4XsLM33l1pqL59aXnOYym+/FtVzq3OLrn8eCI0xzTst3x2fMbGp7zI6zfjPHwec23HwGA4NzRO/xBbhC4uHndrDctDahgqtFJ4wmRMh3+Nzr341kdYfY1rY5e+b6dn8adoD3RHSsXwDU2fjCd/K14WQf+ZeK6JS9aWvtczlR0fYoBrcCKanmaPJ8oLuJ/DKaOmSs9Se2Dev9Oz+Jz5uxiP6n0nfqNgfDqsfqtD4A4WyyeJcoXzM0Yue5BpeLfxedAkFokozTm+OMWnD48vnNkcEe7nYlOQVxL0uDbnmUw3LCZG2c7gCA/qLXAhT97Mn5aeQLkHPlMyo8GmLViRnYAgQZPQIpQBZZ+IMaVZ5CamQO80TbsczyafR2PKfakuZvMNOVFmlKDLPgTC+CzBtlSqc1seQNKGKJ8pIz5fPkyqB2ufR83kYTnXjCiSs5tCQtyL97LVM1imPmSWMy1iwyCiyu/vMYz403j5sJhUB7J+DbfzMqhOFg/L8TxuGJtW+4MenIhLqoKz7bjGn7t37kO0tlMeV9tuKI8vz8a9z6fT8Xg8Gi19jLz/nc6f3i8Thk+Lxm0jU36aQtl06xRxHIKoJEVpXlZbAgdHGl17khcnHjcUHbybUZi8H5mkr0PcmKr4yhunKB53j0WRF99G79E9AfzCjZKv39kYa0YZ/0/QmR3DKH0lfBPkqi3mIdiEDnSrRXic/72i5Bci1Fcc2D3jS5rPX2bspPCpEUGAfASnGIwv66iqjpXCx29EXEvMonk3np7Fo6XRIsIVJIi/HR4/o8jiUDUMKk17bCidFPwefg5KpXe+JcfVGdLF4G+lx+Pnry017NBZTI3TWG9v/7qcfZ56/Wpwq0t57vjI9MQ1Y7r4WV1iL74wfQ9NPj3vDycvKhyEwXB+SFYnEj0JTXufoX7OH4bBYhz/Gpr8DF3iLyhJHQWdasT8spwcz5+fzx5/RMuFOjrV4ehJi5xrZpCjvY+Hp6rTfT38pPxyfrnNrqp/UGCX9x4NH/+Nz8K4L5+T4XL6ntikosnvvgAEH4HRDO1yOvp3P5nTefl8nCyGs+UoyFS/b6Tm/Wk+HY+Ws2GQ/XdPPckzZPgfxDqmtdvUKoEAAAAASUVORK5CYII=;" vertex="1" parent="1">
          <mxGeometry x="1" y="380" width="96.43" height="57.86" as="geometry" />
        </mxCell>
        <mxCell id="z3T6Kc_sz7TtANk57Cug-25" style="edgeStyle=none;rounded=0;orthogonalLoop=1;jettySize=auto;html=1;" edge="1" parent="1" source="z3T6Kc_sz7TtANk57Cug-5" target="z3T6Kc_sz7TtANk57Cug-15">
          <mxGeometry relative="1" as="geometry" />
        </mxCell>
        <mxCell id="z3T6Kc_sz7TtANk57Cug-26" style="edgeStyle=none;rounded=0;orthogonalLoop=1;jettySize=auto;html=1;entryX=0;entryY=0.25;entryDx=0;entryDy=0;" edge="1" parent="1" source="z3T6Kc_sz7TtANk57Cug-5" target="z3T6Kc_sz7TtANk57Cug-12">
          <mxGeometry relative="1" as="geometry">
            <mxPoint x="336" y="269" as="targetPoint" />
            <Array as="points">
              <mxPoint x="333" y="258" />
            </Array>
          </mxGeometry>
        </mxCell>
        <mxCell id="z3T6Kc_sz7TtANk57Cug-5" value="Request&lt;br&gt;Processor&lt;br&gt;" style="outlineConnect=0;fontColor=#232F3E;gradientColor=none;fillColor=#D05C17;strokeColor=none;dashed=0;verticalLabelPosition=bottom;verticalAlign=top;align=center;html=1;fontSize=12;fontStyle=0;aspect=fixed;pointerEvents=1;shape=mxgraph.aws4.lambda_function;labelBackgroundColor=#ffffff;spacingTop=7;" vertex="1" parent="1">
          <mxGeometry x="294" y="365.9999999999999" width="78" height="78" as="geometry" />
        </mxCell>
        <mxCell id="z3T6Kc_sz7TtANk57Cug-12" value="" style="shape=image;verticalLabelPosition=bottom;labelBackgroundColor=default;verticalAlign=top;aspect=fixed;imageAspect=0;image=data:image/png,iVBORw0KGgoAAAANSUhEUgAAAU0AAACXCAMAAACm/PkLAAAAnFBMVEUJLiD///8AKxwAHAAAGwAAAAAjPDEAJhWttLAAKBimr6sADQD7/fwAIxEAGAAAFAAePTFZamMAEQAAGQDh5uR2hH4AHwl/i4ZKXVQAJhK7wr8ACwAAIQ3m6ejt7+7W2tmbpKDJzsxAVUzZ3dsySkC3vrtqeXKTnJh9iYRufHZgb2mosK2KlpGdpqLCyMUUNihFWVEYOy4sRTtRZFzV6t6ZAAAMqUlEQVR4nO2da3eqOhCGJchG5BKFih7BC15btdLW///fDohamAmaIFvda+X5WAgOLyGZmUxooyGRSCQSiUQikUgkEolEIpFIJBKJRCKRSCQSiaQeDMCz7fmnMQ6DIpcj5L8i5IlW/itoCuDPSTW1BQ4sm8+19F+gXM02ONCSat5EqlknUs06kWrWiVSzTqSadSLVrBOpZp1INetEqlknUs06kWrWiVSzTqSadcKfkZNq3qZUTePQL9KVafmblKrZMMIiUszblKspEUeqWSdSzTqRat4J0UPVcxK8pm3crSYxbD+7nNP0bY6pihh66DezFk5TDXXRx5dcwA5V1UtQVT+0dePqFYitOq5LE0zarHcuJaGjxd1+uzVMWLbfB+Vq6s0iOr6a7lOtcfhYb4+XG7amvYFq+mX3lujepIHZOaz601OLYevzvRtrNORTlBi+YwbxYPW+bm9bCdv2uv+xmTWCIBGK9VhsJ1j02sPJKGW+b/UH1OX8sZvobvy+HxfEs8rU1FftIh9FOUno6t1pNIbt5+sfF3cAEnommb23oxE8P2G878cu42EVMXyTHNb7N8YFFGUUtXbdP55beObE81dDdINRv0Fr6KG2tomYpjDVVLfgQCEWsl2jHyFDz/YuaEGGkGqd/vKt7PSszUG7dovE1xbrydUrJIwnrd9nTpy4XdJgPzPv7J9G0EP9iAVHnE6azkd09SLt4NdaY7Yr1T3PfOaU2k7jNatTM/j0T21CHXaHPPvOXXEynbFfEcRtNUk8valO9KuMyve7CbuAaTpxF0vua5xHbXd1w8ZdULl7Em3Ka85tNV2e57LXLmrydMyMpcawXW3wa6m0vex+A5izwUS0opzEj7jtua2mydXLP2xxNZWWi0wP+vzNFSU+Wk+8Cce5b9XKK4nO+Zan1KXm+Pyui6ip9MKi6TqJBForLcovZuIIVKmiJCrnCH6kLjWVjV5BTYsUbtBfiDQ+G6/xiakoE1NcTTcSN6gGNc/nC6mpbL28mAeRpooyPHZNCi2/YiMaWW5BP4Usqk3NuVtFTSXnqtpfQi0VZZEOhLrIIzjcDBqK6IIm1aamZVZSc3WevRpGR6hh4kccf9HhcqtPjNlOWSmuyKCpVFFzNIkS8M+chkBBNVuXV90RtFz5SrumuhZqs/MbAoRsB2Pe6q82m4/pvjRO51HTiqabThAcEzRaJwINfkrVnC/XH5vNpt9idKO388xA2bGMNWmte72POfirZZ3mFJ/x8MbTQyf+s2mxDnkNASir309jsxnqum77tMIK8EnNcXvguP5v4sYIwE8NDLaaK9v1fDv5+dAL3pFt1qmzGDOG4cqwq6aNbS0q/n2i+YtFaorP6Jr9QNUJIboTDvHBi1/Mgf2B20fE+3VDqqq5HAQqcH4dEH8cStSMc+3oBpnXyQwwGW7OMqanWYNGxSNJv8wGFsbA9nWJcomGtY4EpnUX29TS8i5dFTVH453q4DgCdouuzlazk//9YA8NmB2vrHeR4dbhN7R2QC87jw8GntC7+ZFRw72TcLvwhKDG+2IsXEFNfeUzh+5Kauqoc2YDBHaSrZ9cnFSmZhMNtsuCh07wsNrjftXxHGSBzHOVypkSH62Smo3/oAHHGIp8wz8rs/xdQzVHJ08nQC96o3i/eMpfliYCIRS9R33QrWqpQyLJhEJdbVdswKemBg8fm4XgWsnMWchAQzWtTE38Lu7BsEhieMaIe+B04YxuqeCMe9U0QselP6tdaz8fA1341ESxwLEZnGUuU/0JD2TpTl44HjdW8D3Gs9v1RbpfCIomlhScco+axKbmrL8sC43uUdODF9sW/UKoppLNBtg/iqFU+JQFp5rGALZEQ251NQ1qfGDnH8pSTU3sbA6KPkSJmujPY/Qa4+674YzV7R5siZ5DVTV17YvhCiNZKqqJZ08w3JeoiQaICL6LjPmtH8Jz2OBejYL8amoS8zCHDRF3qNmEP/4GMpFoRTVTE03pSxw4utDOHa+acDXIQgsvldTU9Vv98ixLRTUd6IvAPqbCNGOmCIqjt3DWTdSE9kw5Ex/Il8UJqCpqhjOutNAdaqI3dgicwhI1UTaOoVR1NaEitagZormNzR1qooD4FdREitTxphs/sEkJd6iJ/lhVTYaTjNSsPG4qaFAWV5M7/VynmhPg6aD5tWTcZISNFNrJO6eHaE6fwdSPsJqsBOIRaw4Kxup800dgFkKRp8G+GM634YiG19/UV7Aleg7CaqqM9PN82/simgtWXuuchWD4h9TMLorajZG/aSNNFpxFCjikQM9KVE1szLwXuk07vVu3NjVhUgPF28i9zy7qoYKZDgxX0H1xJzhJA7kyMG4VVdOBQchKu9xnfWri4QTkglCUlw1hOPWEQukAhh38OSQTzRhwPV5UTRhtzHLucX1qMhZgihXkJWri1HsEfEKCPBLoLpSDe34x6SquJji/kNmuT02chVSignOH1DwtQqGwUfkpjooUKfLOOaWzpiHFIgU5BdWE6djCi1SfmjgxC6o7kZqniRmvgxWfAqPiAeXsykHOVTLNzdxce1E1gTUF76JGNdHwnLDO1XKHUM1V9mN44FTec9M6QaOmMheo9mBZpWyJG2YeBynf4cKnZsHjqlFNnIVMmMxM1TYMQw8dDc7pp2Vx7E0mhy5LnXoQoaO8vnsKe41fifoDYmqaGn+hhdazmiiDmKkJsoOT/HtUo5o4/jvy9rkaLL42uyEaCM5FBmaEW7VsGuqG7muManXLFqnhZDyN61xXEw0dU81Pu3m6papZn/eetOIuLc84q4mXG1KG/e5hs2alZD+FdhMYCzGrLmqiFONpTofavO0OsWF0Zqv+Fmy9uEtNYoiZffHuA95S2CNwQfwWguWbFzVRkHbqm/DP5dylpmit20XNkrGthHehErkGw/m/zllNFzb7PPrppUkPzH1qMgoNrvHrXJTU1jGZCJZvpuGlSHnor5rwLrOkqsDIcaeaYmNUzlWj3HsmrIbYe34061ukHvWiJnwG6+ylYNWusblTzYaPQ49ycmoaMe/9zgSqDS/ofwR652XcLElR849L96rZoLi6s5R8GGHzrVsVq+f4MZo8a4wZZzV9eODs5nJPa3er2aCoHqCUQvVCyLUx5oDXM/kg5oq3e57UxF1wdb7LgHOn3v1qNtQZr9nFRQU9vjn1jn4EgiCIra75uv9JTZwT+336Jl/vrEHNhu5zztAgK0zcGza2vfv2qPtBj2MCsU5qokXBvL10wON11aFm8lsd5qsAW6EEuvMTlZsGdtBXwjY7/fI6LGsyXHf/OOcpHdmSt1c3u6gytHixebQ91TyhHdVATehWwkUvQskOdINxuwNHVKyOYc5KhqThl1nL5z1ISIOf1XoZvY3GVsp4PHqLltvdakA018ntsEA9CmwF0am6+YxG+bOs7Frr3mZhaCZVT9cyekXe4+KFVuDwD/IBSeh6h35rP3l7m0fLdm+hqR7IvOFCgfSXqf8B8yPjYS+s40MUF9t036Mu9fwUz6EmdZqhDdYE8ZLAHNfuqZSq+vdilvD9bdjJZdNr+bZetNYGwMuAw2yH2gibiammm/xAekYTDESjkqDGdmi82W33R5JOE1Onio95J3gJhFFtdoSQ9P/oEMK/taEO4KImrF7IQfT0QSQ47M/SPADkuwtlVf8+JpgG+ZfKnoCPFwRQlcgzIQZ42p/VwprHgPfRMof5p4EWOkT29z0axn55/l01jwCtKPDuBHgCrF32vKVPDwEl6yyhnbwPxcD1Nr/fPHkUYfNKb9NgKLa/P7T5S+is7PL6waO8397GZU420VCM81oORw51wRDz4W9SM/F3l18a3LSdEuLtjgL7eB8K0ZgpRbHvNdRAtv9h9DmgNBfuNojtNPt4HMK7gl4CL45YYsLK3r/PZTfJeL/efIeOaybQsNNbsrI23VeaIs/4tGRB8uvh1hb35qT5lIRRSf5LpJToURB7V2Lt+vG+Jt61f4WvVwrTTuhlGeD9Ex69iJriH9x6BMGKqafIZ0RqQ0BNvM33NbDNLl7rGLrP8D4E1OTdUvF4dG0QFW0t+V7r34Zfze6rOu4phrnIOcfj8m8J/1241exWXRR/EIZ7WSWcOs9y5DjVtAYvLmYjXSWM05TcMH5eZoZPzXnjhdOavxDPWM+eMv2caN7+irNi7e79avvDIM/970z+7XKSNnnl1YvXwlm0r5Ugva0971/pmK+A0aQL9j8xsKL1wpT9UpTjP9jYpJ8BG43G46wsZfqxMKn/sg77i5PWFlDXpZ5zLEvxuP6FkUQikUgkEolEIpFIJBKJRCKRSCQSiUQikfzr/A/HFQZtLdTbeAAAAABJRU5ErkJggg==;rotation=0;" vertex="1" parent="1">
          <mxGeometry x="451" y="250" width="81" height="36.72" as="geometry" />
        </mxCell>
        <mxCell id="z3T6Kc_sz7TtANk57Cug-15" value="" style="shape=image;verticalLabelPosition=bottom;labelBackgroundColor=default;verticalAlign=top;aspect=fixed;imageAspect=0;image=data:image/png,iVBORw0KGgoAAAANSUhEUgAAAYUAAACCCAMAAACejyR2AAAA/1BMVEX///9jZGakHhHYLCChHRBcXV+tIRVfYGJ6DACtra75+flXWFu8vL1aW12xTUd0dHatPzejFgPh4uLu7u6eAADUKx/YKRzWDwC/JRnJKBzFJxvWGABrbG7XJRfFxcbWLB+1IxbXHw7x8fGGEQfQ0NFvcHKfoKG1tbb76untrKnzx8X1z83lgXyBgoPa2tqJiovhbGbpl5PcSD/wubffX1j43dvaNiveVE2VlZfnjYn88fDkeXPro6Dmh4Lvs7D21tTeWlPbsq/IhoK6YlzKjIjQmpfjw8HbQDbhaWNvBgC4QTmvTUeCDwXcTUXAb2rOgXzGUEqwFgCpLCDeuLa8Z2KKlVhHAAASQklEQVR4nO1da1vayhYWNKQQUspFogYQKDcvgJdiUbTa1lb37rY9p/v8/99yMiGQuaw1MxGoteb90OdpSCbJvFn3NePaWowYMWLEiLECZA4uJ/fvb47OT3tP/SgvFb29dw3HbVQ9NFzn5Hj01A/08nCxd+O41fUQ5YZzsnfx1I/1orB/1GAoCIhw3aP9p360l4LR1bojUjBF1Tk7jk3EynGxd+I0yggHgWZ6f5p56sf8o3Fw5LgBBRImqm7jKjbVK0LvuBxqovKDIBLl8P++qY4FYvk4fcdMe/Uoc3lGmYey56ve07R4BybXT/3QfxZG5y5vkJ0DT0FNXF9BVT0KLntrN9wpDefsMvZdl4TMh/eAQS6fkN+IsXbdh0viF40cwUJ4AnF08MSPvzQMaq0if6zYqg1+xb2vD10gNCDCcBqcsBe4pocN6LQ/xXfNmpZtW0PG2DWH5JiZXfGte5eeXwrNLfnOy+y5F6IozAXi/tkHcx0rQWBUmuGxYsLwD1rpVd55/8h1MYfU84LOWF1z6SKn/gkC0ZqS4NEwDA/2zeCgtTKt1Ds+QyNkb1bXr3gHCNNcc9ZunnEwl5tNeMIqzI4NZswkzKHs2seD80tZCpB00cUeZMVZ6p5pMNecT3jCnluBrjE/WFnBPUfnZVwM1qv3+Dc9OsZTTFOBeP/hOQpEMWTBmBuBdMiCueyXynwQo2KGhMne6cGoh8YBB4f4tb4gNQ6fXzBXtH8pC6hfSs1jw3W8GKFxdjM5v2S+7N5of+/46uhMfr0nEHfPrRDxK1m42LtD/VJgNqvVRsM5nF56PDmpOh7cRkNBon+p60yeVTAHsrASu3AwcQC/tBwAm1DHt7c9p4qcslN/m9oEjled8jPyXUEWlu8jXVwKfmnZ0zxuY/3u5OHh5I6kilzIXFTfk8uPYRHa3EqlUm9f/fV2C/jR00zvTpfz9CsHyMKy44X9e94gezrj7nDvujfXd5ne9YerO8BoOB+8X6sAP7s79VTKZ+HVq7/+ScIC0Th/Fr4rzELRmNJgdRa/Q0/0LqvOyR6oLnof3gsiU71YOxXDZl8M5iwQIjCBeHgGhQiYhbVizrINy+guOnwGCs+cG4npHN077PmNw7X3HDObO6kQAQseD6+S25BAuNXLRV9j1UBY8GxDtltrYldpogeGZ+6e/KpTzoi7e6xV2K6nUhALvkDUIYFwT35zzxVlYXFkzkF76yhN5gGXPaVJYMRAYIEIxAYgEI375b7asrE6Fi7uwCRoVWNC4EqCKAYAC75ACJZ6WjL6fbE6FibwVKr0EQFgjQl260mRBJ4FTymJ7lL176W+2tKxOhZ4kzpTDofqS5HwgPaMELsA6qP19fqbpb7a0rE6Fv6DpBpcpQffk2X7BKX0lhYD+JJk/sWy8A2eEi8AUOQ8e2ey3jxBIN6GYgBet5naeMEsvM6D7rtHg3MucxyPHTkJ/tdd51jAxGB9s76RTGqy0OwO+50Wc6hYS4+H/WGnAJ3eSo/77UolN+xkI6QYirXOMFeptPvjdGsWCmAsNNPCE1EoZIOROlno+Xx4LGykYB4aDlYDGJ27kvIyPbtU7EzCNZi5bZ8DTRZqlmGappWbR0mFTsKLXb1jpiEkEYrpnEXO95NthmFZ/axOiD4IhiRXeaNaubTf/IKwkA2eCBq5NTbISIlgJGMMk+WxkPR42EF4qE4+XDOjZ0anh2eyzDefeQ0E4h8wdeGfkJpyoMfCrABvJqaP1cpZYWqZ64MYDOnfppfZ1lhoJ+JQawuXGVZ/gLFQC57IyIkjVSyTHci0KlDHjM+Cx0Nyaxec06rrOGc3R5Or8/OrydHNmQMnVafnkspP+eGG+50IxM4mctFWcsaBHgvhPJDvfpDjXtMKp7jQ56dgNhFjWbahVbHgq/qFJsRCJrw3N7+DNjiSValhLBAeAA9+Nr3Vho8qlDUlnz+Zf/fs5nBvv3exdq9R4Qn4qVMcaLEwoF6MtAfx8xzm1NIwB/5JhjgPAZpDcOYC9sIRQxZaYX2hzwyVRkey+rw4zlnweMAMBI7p5199ODo+vZ7Z8kusL4yHZw5oDrRYyFKfY7FvCy9oBJahmRN/o+dhjJCc4HURwwN1H6jWlqB19xglgRDKJWApFqaKCRMIcP7P3pHPnzEcQJ8qiJ0US4EmC9Q754AZC1goJFBBCM7LQVopK5k57npV3Xks/Qo8cWAmjWXBV0wqgSCmwn2YUJ8/jQcdfbS5lRQ4iMwC+Ha+rhnIp8CfsYpIA65DBKhY6KqGMpjyKM+CxGOakTA5PcBrxccaLqygipbHQoKcVFCTQGjgPUvlzNGTKGehqB7Kon1WgAWppfZwJqlPauijbVEVLY0Fv/Rb5LWRadgzp50+yhpTysxqQMFCX6EQycm0aQJZUFhqsnIQmaU7RUS9C6qiAKWPj2fBi8lsq+IHp21mCrwIoZ+utWrdocGFATYT42l8vtosDLixvIcz+K/ApMMLhIUkHkIQVB33GDIK53J9tImoooCEWyUJGAu2PUx3gwRFhznF6oeSX0gbjK5imiba/CzZltHOVTwpgr5rOQtj5hLvM+h0u+k+OxIjil9K+LRsbOCWutwA1udcS/WRp4pkHOS/qkmAWbDblI5lvkOjzaWOsiY9ANXGlWZtiRek1aZOfbEGRX9yFujz7fY8OKnlqGczGEn8JKFBbqmrQo+jJM0qVUWeSSh90urBgFhg0xZt+hexOSVD+/Fh5zWnj6whHVd5UXgkFgrU6ezDtdpzsi02tfc1KedBYqnLrnNIWWq0BMoHycI98t81C/8iC6bJvE6NngFwkRN9hjE7yOgQ0+BzbkIgIWWhJcmAdwO1JK78+ZKX86Bpqfl2gDkwz5TiWeZ3yVlIsNmAiooERmfNhIERBbMi5vsG3H2lLNRCFkxhpCK+Cu5HXjZN8pi66qz7vaYZJGEHBMni0KRRUqeVXmDBZgWbcjcNJEvB0NCeHmEtOhRWc4GgNguAni3Wsi3g8P67qmquVJb6fh/uI1CoItruVB2NWjfPgsXl5YaUZpGMMqdhqp0z9JA2XIthwwm5RgpPNYeaLYf7d9OeMIXeUFpqIHOhUkWcqnOulA/LscB/75nw/Xl+GMzJms5mS2lMPIzpW0tZoPWbmejq8DAJS5dwdoeeNoliEtWRShVt8GZfox+JlwXuDSldIF1MEM6THztRttkUazUBMrQBl3uqzCPa5rCmKiydO1FmTj/7rfBMQULL6n4klgWL92XC6VSU5+cn2mTmKpIhQ1DzrWChwwYYpm1XxjW06LwG9COpFZMkpp5BHiRjym0rYh6JzwTR02lkCzLMxyHxM61BJCJEnyZnoSBmQ0go3u9iTAD9SKrPGNAlkThALt9NRc3mWfxLZeiv1ZJhfiLxVWnHSrYIIafLwtoQTLSYhlVJg8rpG1iUlycb/I8ZVUx4znR6JSJKW1r9SDQLoigA36AKZDqpcpmNKyRmwhUsME4Xez+/j4DH6zy44EzpYpLZfAwHiJ+1Q+4WkQVRhUdKTgczN2aiBUtmR8GYGK7ySEocppUTFBPpR6rDel5pqcXchpwDNOYIVGBUjST8WtMp73BzMmRdJJlbSYmasuI5EOoZNA+83iOZbTRVpLLU7LQqHF3MzQ0vi8YC4AVlo7NADAEd6slYiLT2v1CRFKSMNhufT+sL6FeqEULUt7Y9bNXlpgRTRbQlj8YCEOM+ggWi1lbCAtSnE8Jk019hPxIWGasttQ/5GQjJrAaLyIKowqNrJJMkksaaLETRSP75faHJLzyXKXvT/UhYZKy01HKgCo+Xs4VZiGidTdPyNcMKrPOMh04CI4JpwmAqnnjKTmWpJRygqkigdmEWaE+1klNjOM01UZ6qJHSO4qlSGHTaQOsBdyuhHwlVTKqYGqQAiyvA0RZmgY7aImxKQSkyadTWhzokNXYjKbY6fdOSlf/F6j+qQJQxtcgBMhIiWQuzwCSEZHkbbpY0MxiU1Ym+J0yhy1sJ6gmhHgw8Zae01AybcK887nYtzgLYz6sGoic46GfzEDS7Cdp9oJ4Q60fCUnaqPN18AESzyRSbRiuMggXaSTLEnzEMl5zZxkH3/1G3QvuRFrHU6LXSS0uf1fOlYCFDpz31N6agyUOrQ0xV9NG7VBWpQcKitKwR5pGWGjMH8ggwr9MUpmKBCcCkXicD2qrD40aqeHq6J9vpIGxSb2CFrL2W9V+glhqfUSzqUPhYpTdaTRgqFpi5EvqBUbDNdNBlhQjVf0/v2IZhmaCJoeSOYmHttoQ2SSZllhrULpg9UVU/8z/0pkvFAu0leYoXoYHs4cJcXWA7YcQmjEidMDPlD+42TEmrTT/e6LO0HQmPqQWPCeFAlYwimq/xoLVjmJKFGjufkLs6qFiktZiJDIZMV5jwFUfqCgsdX1vMYdOprjb709V/H5kHIgHwxvwk2IwoK29TYas6dxpbGSpZYDokE6adFsRh/qXS1purD7ELQSN2SNJHrDHLA71Qhemdz1yuNzSKOrilTpHfU/Ud2BwoUq2UJS876t3Q1SxwXet2gqkxNrOV+cfIKAS2Lyxh2MNgsXn0bmFm8QJpO54puEKaiRdsyn7vr0+3m9LJYWPV5l2kHSBiI0b1YQksrHW4xKph97utYrNZLLTSfbp1ng3QKuxVnhgZlVw/V7Ejd873+Q4Moz3upDv9Chc7G+FXsE/tpKCKjCMuAo3QlxcIw1JYoPYkn82DYfmWgEuqsQEFWLPGF+tKWODEavoEwQYE9BCUYWL/fosyMtZfBBqxL49gd+EMho+iau1bAC4+q0VJi8tY4FfyIKBjPP6v6Oi0wWgIROS+PMLb4nmkKTRbMWzOcEdY4in3VIc6xSbmG3gtdjZqtMFIF4GK5Rv+eijP54nhsljQ+xrFvN3SVtriGwiET8902L7OAzOq0waDKiaFNMHGZbceuRNGwsJaQdDCPEwbaAvSX2uryGBkJSXn6cOzu0G/zm+ADUk7SksNK6bdrUf05QXmKNoODDIW1prA7gzMLOTAq1uS/pUEvTsDyAKV+ijkpITyO0D4nTCgC7qtDiEEHjYVHICx9dwl0GCBXhogP1OyG4nnxGPFh6YYoIUXdcKIMFRnlFFnkuLsOkZuJL47P+iEAV3QqJ30qlQreBPKCkXfmUeG4hDhwbSGkjpcrQJKkUk6G8OFoGHxIszH2iy1mY4Nd6uySxcpFnyLC4VeGiHE1vbm7u7m5o5iASG8vwbjS+mwMPv0TGnPyhSDIbDi37bHilpoti1u+BMsm54FELSDM8sxiVs6NNMJaCSwT5WaJ0gxqS014UnVkARac17WtHZs65II1LSAFYAAit2cPd+xjWzEYPazGhtiD8YVasc2e7Zjmzeev/mXwW6sk5Y8UQsbiQVda8NiY5WlVgH2bEX9pbd7YaGTa/f1/1Cgv3thrt3O9YedbEG74lAguxeSq8Zp5i9GZvvtHL9LYmEseyIykvcAwkg0uIonkpt+VBtMMCLsTEGq7nffyXN1EOrOiAKP3AYzGw1SRchgMQvM1wvHxlHaYIKRwIHQZFXMgs4nrHZdWTK1VdGMBY0mjD8TWCfMopYaacSQ0ZgvPZ8/V7VkfMZL/0hznU5fGHypYnukny+WhLWRrAMDW42pUc2PpIqS/tY8Tz0VT4nRT2lDUnRLDasyecEhX/r8LP5W2ApxW1JskARbajimBjlQxN8xBwQXPxQ8wN6O6DHBJl3VlVf6HnPg4+JLUtqhhwkE4zHBiSiVKsrfvlyjLOLjGxUPsPtP1nb6qwvrQFJWEWDkSz8//v5/svDX4uv/VIoJttS7m9vb23CdSKqK8qXXOttGvjj0bvOPUkwgFHsxxOZAAqVi0uwMU6mi/Jff/M9FPjFG3+WKCV2wFkJpDt78+9Rv+fvj4otKMUk3SFKkOEql/8WqSA9fvyktNaKY5BzkS6XbWBXpo/dJaanBfjKFKlJvKx+DQUYdQnAek9wt8lSRzsa1MXhcKyy1ZyBmi0d25V1kcZC8CC6+/FRZ6mSqXk+lknJz8CYOkhfD188K11WFUulzHCQvDmVMLefgU6yKlgOlpUaQL/2Mg+RlQhlTQxx8i1XRsqGsQrAolX7EQfJKoIqpKTEoxapodejdltQCkS/9HQfJK4bKUsfm4NfgWlKWi8s3vw5YCOGZ5Dg6+IWAQoiYgycA6zGRhF3sFj0FRp9+ljyfKU/++fxvnLB7Moz+vf3x/dPH65iCGDFixIgRY2H8H7mwBXuo4+SjAAAAAElFTkSuQmCC;" vertex="1" parent="1">
          <mxGeometry x="449" y="381.93" width="150" height="50.13" as="geometry" />
        </mxCell>
        <mxCell id="z3T6Kc_sz7TtANk57Cug-18" value="" style="shape=image;verticalLabelPosition=bottom;labelBackgroundColor=default;verticalAlign=top;aspect=fixed;imageAspect=0;image=data:image/jpeg,/9j/4AAQSkZJRgABAQAAAQABAAD/2wCEAAoHCBUWFRgVFRUYGBgaGBgaGRocGhwaGBgaGBgaGhkcGBgcIS4lHB4rIRwYJzgmKzAxNTU1GiQ7QDs0Py40NTEBDAwMEA8QHhISHjErJCs0NDQ0NDY0NDQ0NDQ0NDQ0NDQ0NDQ0NDQ0NDQ0NDQ0NDQ0NDQ0NDQ0NDQ0NDQ0NDQ9NP/AABEIAJ8BPgMBIgACEQEDEQH/xAAbAAACAgMBAAAAAAAAAAAAAAACAwABBAYHBf/EAEkQAAIBAgMEBQcIBwYGAwAAAAECAAMRBBIhBTFBUQZhcYGREyKhwdHS8BQyUlVikqKxBzVCcnTC4SMkU7LT8RUWNESCkyVFg//EABkBAQEBAQEBAAAAAAAAAAAAAAEAAgMFBP/EAC0RAAICAQIEBQMEAwAAAAAAAAABAhEhAzEEEnGREzNBUWEUFTKBwfDxIkKh/9oADAMBAAIRAxEAPwDmVQE2A330jHoPb9n0waHmtdje+g6plM87nMxEsBpBe9xbf6parvIJAJuB1c5E0OpuTASiG42A4kHW0zwwtpumE7c90iXCjzrdVgbdUboC8R84W3217OEW4PG1uOsJDqbm5OsjtobwIO8GnTLMctt2t+cEIQAM2vYJlYZgBbjx6+uO5GNWpMLXta/D0QZk4l/NPo7ZjCRFyCQRhNtLCQlZechWE4HZoJTGRCMQSWI5aAdXD298V5OZFUaZvo6N+6TYHuJt3jlBzp9IeImULEhIxazLuUNfUhr2uNARYjrHdIzA6A9ZI4Aevh3xlJePP0DgJVbBYBOJb/DT8fvSJRZiXYd3LkAOyZlNRaWxNvi8eUrFI1jf46xI62Om46js+Pygw01GXvHrHxyiyXsBGVW0RRutm/eY6Hwtbu64qXvGXje69vEd49IEGKJeUTBV7i8KIAuAQbxy0LqrtUCMwuQUZs1iQG03ZgL+niIhUDNlPzQMzEfRHAdZNh3x7uWJY8eW4DgB1AWEw8sVhA/Jx/jr9x/ZC+ThQzLUDsillUIy6i1284a5RdrfZgwkcqQw3g3H9eqTi63JNXsJp2sLQgYNRQrWHzGGZeocVvzU3Hp4yxNJ4BqggYyifnKdxUseor80+Jy/+UQzWF4Q0FuJ1b+Udw9J6pMkXLRbnq49kGMbQW4nU+oevw5RZFO1zf0chwEx62EJ1EdMhSbDSVFZhvrp39glul+J8TGYhAozKAOdhFNVHOAFeUhUKec67hv9QvIlMW1AJO+HTcJpuB/OQjKmFXeL9lyd3aZjeUj3xA4G54CLFMW1APXaLAmGpBzc7h12ue0RtTDqNRfTXeT+ZgUqoXzdw4dUlbFC1lNzwl6EKLxam5ve3DSQIOQhqIUJMut7k9pJhSCPZwvmhVNt5Nzc8ba7uHdKySEwg0YK/wBhPA+2EMQPoJ4H2ytjQky435SPoU/A+2X8oH0E8D7Y5ASDy+L6HfKu3NfuJ7sd5f7CeB9snlvsJ4H2wav0GxDJffbuAHjYQo3yv2V8D7ZTi4DDsI5H2H2yWAeRcYaptaLkiBJV5cqQhPzHH0Hj8dcXDQ8DuPoPAwDD4IVUGpIDC+ujWF+Olosq3Nvvf0mQZAIUNhUBZP8Az8++pOnmd3zu/tEK8BTY6jQgg9YO+3WND2gSKd4O8ekcCO0SWMA85DvJBvKZtwG87vbNWRdYXQ/vjJwIa3nkdVrX68sxgrc2+9/SZLG+7cBYdnM9ZNz3wSJlRFv0FIuuoY9rXHeMsdKEsRSorGIOJ3D08hBJ5wnPDl6Tx9ndBivcmXGJVNouSQFO5Y2sQN+vH49kjR7VB/hp+P34DVAdCqKDpmGa633HVtwNr9V5m2VIx0c6ixNjvhIdb7rbu3nLQW0OhGh7RvkKFiAu/wBFuv44xIpmgo5tuMKph3G+1uJBN7eEIbpUQtTe58BynYzg9l4fDYRq2BWo1WgjllRSSQiFixYjUlpxms1jpy1E630pP912b/DD/JSnTQ01qaihLZhJ1G0NGL2N9WfgT35YxWxvq0fcT35qYMMGet9v0fnucfFkbWmK2ODcbNsf3E9+V5fY31aPuJ781gGEDL7do/PcPFkbOK2xvq0fcT35fldjfVw+4nvzWgYYMvt2j89w8aRsefY/1cPuJ78vNsf6uH3E9+a6DDBl9u0vnuHjSNhH/B/q5fuJ70sf8I+rl+4nvTXwYYMvt2j89w8eR7HSHZOz22bicRQwiU2QWVsoDA5l1FieDTktNuB3HQ+o9065iv1LjO3105x8TyNSCjOUVsmfTGTcU2EwsbGVDOovxG/s4ezwizMo0XKkkkQJhNqL9x9Rgy1bw4wZFAcTLA0Nv6/HslHTQyw2htEgSLDXu9sS+ttAbc73ty0IjSbjX46oIW/LtJAHLedIOvUUJyfZX8XthoLcAOGl93eTDyfaT/2J70hXs7QQR16gzOCyGNRpzhW017ucBTppzh5rjXnpNgyiOIhIba+Hbz7oI5D4/wBpbN4cIP2JYyUIUGFEi5JUuRFwWkvKJkQNyeNitgdN43K38p7FjsMbE3Nyfy6pWDS93bcRYdSA6ntLWA74y6fQf76+5MJi0G7ixvu4zzlZuBsOFxeZj01bQZgTuuwIvwHzRMJG4HeJqwosjeSbkzrXSv8A6XZv8KP8lGcnbdOr9LT/AHXZn8KP8lGfTwnnR/UzL8WayDOhpsPCDDoy4fy1byFOq6CtUR2Vl1ZQDY+cDoPYDzoGbDtXbI8phqlByHpYakhNiLMubMpBHnDXsN56XFR1JuKg2t/f/tHKLSuxG0cXhmUChhjRYNcsarPcWOlm3a2N+qYAM9zavkcRSbFUytOqtvL0ibBixtnp333O8evf4AM68PJclZxveX3MzWRoMMGMp7OrtqtGqR1I1vyl1MFVUXak6jmyMB4kTt4kNrRjlYIM9rZuJw5CI2EarUOlxVdS5JNrKNB/SeCrTZvLpg0tTZXxLgXcWZaKML2U7iSOP9L8OJdpRV29qdd/goLNnp7e2Th0w7uiBKqMgcCo7hCxHmksbE2PKaiDPRw+PX5JWpsx8o9VXAIJzAWzEtuvv3zzAZcJGcYyjJt53fQNRptNHv4k/wDwuM7fXTnHxOv4j9S4zt9dOcfWeNredLqfVD8UGrWPxrKYW9Ukg1FuW71zk8HRFQZsnQPYC43FrScE01R6lSxKnKPNUBhuJZl7gZm9PujuHw64bEYPMcPXQ2JYt5484G7a+cp3fYMLzQGmmSelhdg4qqi1adB3R3yKygHM2ulgb8DqRYW3zIxfRLHU2RXwtQM7ZUAyvmaxNroSAbAnW2gJ4Ssjxt46x+UDNaeptfYGKwuVsRQemGNlY5WUkC9syEgG19Drv5GP2d0Sx2IQVKGGdqZ+a10QHgcudhm1BFxKzR4bNId9uA1PW39B+Zmc2xsSuIXDNRcVyQBTIAY3BIKkmxFgdb20npHoHtMf9m/3k9+DeTJ4Nl+iPAQRa9hub0N/Xd4TM2NsXE4okYei1XLbMRYKt92ZmIUHqveXtbYmIwziniKLUywuuaxVgN+V1JU242Okm0xVmErWl5p7FHopjXNPLhqjeVTyiEZbMllOYtmso85fnW+dMXamxsRhXCYik9NiMwDWswGhyspKngNDpcRsqMQaDt/KDITeSSBliXKlgxIKSDGByN28/l8eqTZFGlU/wav3G9kW1JzoUdF/aZlIAXjqeMaSeZ8ZSuVObfzF96nQjwmGpCqGu1hbdu05ACyr3D0kxUNh13tbXmp+Y3qPWIsmK2CW5LxGJ0YNz39vx64+YmIbM2Ubhv7ePskxQ1t06r0vP912Z/Cj/JRnKiLCdT6YH+67M/hf5KM+rhPPiYlszWAY2ijMwVFLMTYKASSeQA3zHBm20a/yLCU6iAfKMSGIci/kqQIHm9ZuD39Qns6uq4JJK28I5KNmHj+j70KWes9NHNstHMDUIJsSQNBbfNqwWCrU8NQbBLR8q9JalQtlNY5hcZc2mUajunPHqMzFmJZibkk3JPMk6kzdNp7Dr1sPg6lAByuFpgqGAcaXDAEi44acp8fEKSUVOSy3usdDUfWkKxFXawPnfKL/AGV0/ALR+Cq7XJ80Vv8AzVQPxieODtGnp/e16r1bd3CWtDaFbS2Ja/0jUy95Y2EnHH+ldAvqe70lwROGFastEYhagVjSOhDKTaoBpm3Ty6/R18vlKDriEG/J89f3kOvr6pm43ZdTD7OZamUM2IVioYMUutrMRpfS/fNbwWLemwemxRhuI/I8x1Ga4ZTcHySWG+j27BOryiAwgZ7W2QtegmMUBWLmnWVdFLhcwYDrG/tHKeEDPs0tXxI3VPZ9TjKNM2Kt+pcZ+966U5CJ12qf/hMZ+966U5EJ4Gv5sup9UPxRcoGXBM5mzrX6NtmrT2fiMQ1RKDYjMiVHsFRUDIp1Iv8A2hfS+thMjGdHUbYz4VMTTxT4e9Wm6WuMrM4WwZrEqaijXiOU51tTpTWr4Wlg2SmlKlkK5AwZiilRnLOQfnEnQa6wOi/SitgHdqK028oqq6urMvmkkEBWXXVh3zFMWzdth7Qeh0dq1aTFXFRlVhvXPXRCVPA5WNjwmTh9u4gdH2r+Vc1Q5pioWJqBTiAnzjrmyki++aB/zRVGCfAKlJaLvnuFbOp8otQKrF7ZQVA1BNuPGCOk9YYE4DJT8kXz5rN5S/lBU+dmy2uLfN3eMqKzdtoYx63RsVKzNUcVAMzHM1lxOQXY6k5dLnWIq7JTAYbDjF7RxlMvmanRw2gUmzONdGN3GptcnQTTz0nrfIf+H5Kfkc2bNlbyl/KeU+dny2vp83d4z16H6SsWtFKTU8O7UwBTquhZ0sLBvnZc4H7Vh1gwcWVmwfpjZ1xGBekXWqUcKy3FTNmQKFK65rsRp9IzI23titszArhnxLVcfXUs7VKhfyCNocpY8PmjmczbltNMxPTnFPWw2IdaT1MKrKhKNZyy5WaoA+raZvNy68J6q/pUxbks+HwZ3AE0nJJ7TU3AfmIU6E9elUqYfo6jYV8js/8AaVEYKVzVmVjnG46It73taDtKs9bo55TEMXqI65HY5mI+UBAc3E5GYX4gazVejfTTEYNWRBTekxu1N0ulzvK5SCCdL7xpuielnTDE41UR8iUkOlOmCqBrEKxuSTpcDgOWseVhZu3TTatehsnZy0aj089OgGZGKOQuHUgBl1AvbdymN+kbENU2Vs2q5zO4plmO8l8Pdie0gHuml7Y6UVsTh8Ph6i0wmGVVplVYM2VAgzFmIOg4AaybV6UVsRhsPhXWmEw4UIVVg5yIUGcliDoeAGskis8WWIMudACliVJIg1kJlX4SQRByryQXawuZEUlTLfjlF7c0YgMt+GpBHX2wBjE/w3++PcgG+47zZm/lXuGvaeqNWlwtMJXkX7ANjR+yjA8CWBt12CCDQo2APP4I+OqPsOXth0lvdOZ0/e/ru8OU1VZC7wKbdOo9Mv8Apdmfwv8AJRnL2Gk6d00P922Z/C/yUZ9XCefH9Qf4s1UGbXs/JjcOmFZlTEUc3kCxstVG1KE8GFtOwdc1EGGrT2dXT50qdNZTOadGbjcHUosUqoyMODC1+sHcw6xpNv2psjEVMPgq1BS2TC01OVrOul7gXBI7OU1qt0grvR8hUfOl1ILAM65TfzW3+N5sBw1XE0MM+DqA1KNBaTor5KoK8RqLqe2fLrPU/wAXOlTed1t+4pLJ567T2jT80viVtwYMT4sCYXyraNbzc2Ja/BQ6jvygC3bMr5btdPNIxP8A68/4spv4whU2vW0/vGv2fJemyzNreodbCuo/GbNq0NnsKwys+IV8twzAFbedbjpPD2VsutXbLSUn6THRV62bcOzfPW2pT+T4M4erUVq71xUZVbOyKFy+e3PT0zztodIa9ZchYIlrZEGRe8Df2HSa0PFcXyVlvPp6bL1MySvJm7bxNNKaYSi2dUYvUcbnqEWNvsgaeHKeIDFgwgZ9mlprTjX8bOUnbNlf9SY39710pyITrh/UmN/e/wBKcjE8DW82XU+qH4okqXKnM0WOcEwmMCCH4JNn6O9B8VjaRq0GohVco2d2VswVW3Kh0sw4/lNaQb2O4ek8B8cp1f8AR5gjX2Pi6WdUL1ai52NlW9Ol5xMzJkjRukfQvGYJQ9ZFKXAzo2dVPANcArfgSLTJ2B+j/F4yguIotRCMWAzu6tdWKm4CEbweM27pSRs7ZPyGrWbEVa5JptlORVDIzFWJNlXSwve7DQCYdNiOjJINv7Xhp/3ghbKjUukfQrG4Jc9amClwC6NmRT9rQMt+ZFuuD0a6I4rHXOHVQiaM7tlQNvyiwJLWIOg0vrbSbx+h/EtiKeLwtdmejkSwYlgBUFRWUX3AhQbcwTPJ/R9tzCPgquzMXVNAVGZlq5sgIYLcFzopBX9rQg2lbKjX+lHQzE4FEesabI7ZVZGv51i1irAHcDqLia6huDytr6vb3Ta+mHQutgkTPiDUw7MRTYA5AxW9iheysVBNxcEDfNVqEABFN+Z5nu8O7rinZVQAhSsp5SCaMhwl108PZFiEDIUwhLhP9Lnv6jx9v+0CSFhnnKEiHwkIkHyINU/SH3WleUJIvYga2sdTwv1Q7QgIVfqKfwVRFtTrrc9saiG/fvkSmTK3HsmgbGZhfr5wLSxbf6P6ypEkNxAuufno373PvGvaGnR+mx/u2zP4X+SjOb03AuD81hY9XI9oNjOj9OlthtmDlhT/AJKM7cJjXiupS2NRBnvbZ2QEbDpRDs1bD0amXeS9TNcLYDTT85r4M6rTxmGNClUpYrD08T8mo0c9RwTSVVJbKnB7sRr1crH0+K1Zabi4/P8AGYSs1bamDoYSiaDBauKfKXYHzcON4VSN7Hj6dLA68jkEEEgjcQbEdhE9LbOy1pAOuLo4hmc5gjZmFwSWa558eZnlAzroJOF3d7/17GZbnq0tuYobsRWH/wCjW9Jkq7YxDaNiKrDkXa3heeYDDBnTwtO75V2MNsaDNnqYCliqXlcKgWqigVaAucwAtnp31PWPX87VgZsmxNnhQldMdQovvCs3nLqRZhxB5cjOXEPlSknTW3t0aKKvAjDbPVsHVxBLZkqIijTLZrXuLXvrznmgzd+kuKw3ySoKdSiatR6bOtNrqzqRmYLvFwLn26nRQZcLqSnFyle/7BOKTSRtA/UmN/e/0pyMTra/qPG/vf6U5IJ42t5sup3j+KIYQ0F+e71n1SkW5/PslO1/V2TkaBMgF9BqeEhjKfmqX4m6p2/tN3A27T1SYoGsQPNG4ceZ4ns4DqE3PYPSLD09kYvCO5FaqzlFyMQQyU1HngZRqp3nhNHAhslhCis3jAdI8LiNmtgcc5R6Vvk1XIz2sDkByAkBdUN96sOImf0e29s07LXA4yq6EszOERyR/bGotnCEfRnM5GIMOUkzo+M6X4LCYZ8NsqnUzVRZq73uLgqSM3nFgNwsoF767j43R+jseph1TG1K1HEKzAugchlJ8wWCuugsNwOnGai78tBaRSAwJ/2Px+cqKzfum3SDDPg6Gz8F5R6VIhjUcEE5Q4CgMATqxJNgNAB1aAmh+N8y7zEYgsbf7kRqgCprrroOMgAO68pG113SAjriRBCEERqpcSAKiw1B3Nx5Hge78iYLKQSDoRoRyIgkRz+cubitg3WNyt/KexectjW4uMClt28fl8eqLliTQACNpAX1ixCiQ5nsbCLJvKkEgLEKDCkIL7p0jpz/ANNsv+FP+ShObtOtY2lgMXhsEKm0aNF6OHVGUshN2SncMCwsQUt3zpozjp6qlLZD6HPQYYM3E9GNmj/7ijzGqe/J/wAtbM+uKHjT/wBSer9do+77Mxys1EGEDNuXo1s3cNr0Se1Pfk/5d2Z9b0PFPfl9doe77MHBmqAwgZtidG9nMQBtagSdALpqfvwqnRvZyMVba1EMNCCUuD1+fH67Q932YcjNUBhgzZxsLZv1vQ8U9+WNh7N+t6Hinvy+u0Pd9mHJI1kGGDNkGxdm/W9DxT34Q2Ps362oeKe/L6/Q932Znw5Bp+o8b+9/pTks65tjFYKjsvFYeljaNd385QrpmJJQWVQxJ0W85JTUbzuGp6+Q7/bPG1JqU5SWzZ2SpJFtoLcTqezgPX4RZhM1zcwDBCHSplmCjS/E7gBqSeoC57pMRUDHzdFAsoO8KN1+skknrJhk5U+0416kvp94i/YBzmOZncngcHFvVEtUJlWh0kve8QFgX0noJhE4j0n2xDLxG8aiOTELziiMPEpka3DeIkC5tznp02D6kXHC8mJogrdQLjkN/MSorMXyY6/vGYzLY25RvlRzmbhaQtdgLnmNw4QSEwsOhdgOHHsmc+FTl6T7ZdQhPOAHXblBfErzjgDAYWNuUJahEeq8TvMVWW1rdkiGBxb1SqFTKbkXG5hzU7x28usCJtCgKY2tTysRe+4g/SBF1PeIEYhzJl/aS5XrTew7jduwtFSTFhJtFibMFtx80D1SyLG3h1jhMfycdSUtoNSPXwhsW4QEuO+Sv9Bvut7Ip1K6EEdukbAuSSXEiQMsYFJ4SpEEiXGXiNV9Y9fd1wSoHAHx4ywYxyN9t/o5j46oVRC/J8QD1dUY9NW1zKpO8G+h47hu498p9bWGlvCC/ptrFoky/k6/TT8XuyfJV+mn4/dgSQog/ky/Tp/j9yQ4Zfpp+P3YuGtBjuUnsBP5CVGijh1+mn4vdlGgPpp+L3ZbYdx+w33W9kSW1sdDAyH5EfTX8XuyqjAAKDfiTzP9N3jLp0i26R6RVhfdw7Y0VgZTLpICbn5oF27OQ6ybDvjAYB1Wy7r3PWdw7gPzMmKAdi7E8Ty/IdQkeiwF7ad0bh1sxvvtp65mFtNd0UjNmEgsJT6G++/L85QDbhYjgb8PCRL3N9/qkRTudBYi5tcxotKexGstKD/Z8T+VpECr5SRYkHXTgZdSsTYWIvvvBQEXvvvr6pdTUfl2yIKVTrEXFiQN1oHncl8T7IVLd18e2QkapmIFiBv148oRgVATa2++kY9FxwXxPskAlHOosTY75aG53Wtz/OEmgtKe9xbfAQmF9IpKLEXA07uEJg3EADib7h4TPUgAAbraRQHnIxVgdxBvLxC2sV3NqOrmO46eB4xmJW7C2/j2S6Si1mBI36bwd3HgR+QmX8Cn6MQzLwIJ3ADeSd0JzlWw3tcX6jo57/mjqBg0sZ5wuiDsVAfELp2w3T8Nh2i11PhfTq65l5eRWxgeTHKZFA+aVPavVzHr7uuHkl5bAty/PhNNUSYxGuI+kgO+YeGvvmQDNIB6m2lrxBjadSwiyZAVCU8Pi8GSTFEvJJDoUszAXtxJ5DW5txtYm0iAlRxNP7fgvtlHJ9v8MrGgKa3Px4nqG+Mepc6XAGg7PbvPfJYAebuKgi+/L+1fruPRFTKyDwXmisULgNxGh6xwPq8IyCx0N91jfskxQ3COMo9Pbxh4lgVsd/DqtxiNn4RmFwCd24gdl7mZFTZtS98h3cWU+uXMkHKzEKEgjNrblb1y6ZFhaVWupsdPjqj6eHBGY3110MVkmJc6ixsRI5YqRm8Ba/pl4mkEa43H8x8eiCHkyCRtNN0p9TobHxj6eFW1zfXWwOmsRXphGsNx1Hr+OuIFMu4k3ANzpbSZyvMDPaGlK3E+MExYWI1bzTY7j18vXE1FIsSbiEmlx8a/Hol1G4c9JADeVTUm5BtL+TjmfGFTb9nlpIQqGjXY35dUy2eYL62HP1Q3pX4nxjYA5b3INgTppfvkXQ6m/ogh4VJM7WO4an1QEJm5waZYLvt1WvYcOMe+EHX2E6THLXkyLQ6m5uTCJg4elnbXcPzMe+EXmfExyB//2Q==;rotation=0;" vertex="1" parent="1">
          <mxGeometry x="98" y="573" width="160" height="80" as="geometry" />
        </mxCell>
        <mxCell id="z3T6Kc_sz7TtANk57Cug-19" value="Client" style="shape=umlActor;verticalLabelPosition=bottom;verticalAlign=top;html=1;" vertex="1" parent="1">
          <mxGeometry x="1482" y="391.86" width="30" height="60" as="geometry" />
        </mxCell>
        <mxCell id="z3T6Kc_sz7TtANk57Cug-35" style="edgeStyle=none;rounded=0;orthogonalLoop=1;jettySize=auto;html=1;exitX=1;exitY=0.5;exitDx=0;exitDy=0;" edge="1" parent="1" source="z3T6Kc_sz7TtANk57Cug-34" target="z3T6Kc_sz7TtANk57Cug-5">
          <mxGeometry relative="1" as="geometry" />
        </mxCell>
        <mxCell id="z3T6Kc_sz7TtANk57Cug-34" value="" style="shape=image;verticalLabelPosition=bottom;labelBackgroundColor=default;verticalAlign=top;aspect=fixed;imageAspect=0;image=data:image/jpeg,/9j/4AAQSkZJRgABAQAAAQABAAD/2wCEAAkGBxASEhUSEhIVFRUVFRUVFRUVGBcVFRUXFRcXFxcVFRUYHSggGBolHRcXITEiJSkrLi4uGB8zODMtNygtLisBCgoKDg0OGhAQGi0lICUtLS0tLy8tLS0tLS0tLS8tLS0tLS0tLS0tLS0tLS0tLS0tLS0tLS0tLS0tLS0tLS0tLf/AABEIAOEA4QMBIgACEQEDEQH/xAAbAAEBAAMBAQEAAAAAAAAAAAAAAQIEBgUHA//EAD8QAAIBAgEFCwoFBAMAAAAAAAABAgMRBAYSFiExBTRBUVNykrHB0eEHEzIzYnFzgZHwImFjobIUQlKCIyTC/8QAGgEBAQEBAQEBAAAAAAAAAAAAAAEFBgQCA//EADcRAAIABAEICQIGAwEAAAAAAAABAgMEESESEzFBUaHB0QUUNVJhcXKB8LLCNJGisdLhQoLxMv/aAAwDAQACEQMRAD8A2imIOHOzMyApACmJkQFBCkBSmJSAFuAQGQuYooBkLkKQFuUxKQFABAAAAAAAAAAAAAAAAaYIU9IBkYggMyAEAMjEyIClMSkBSmJSAoBCAyKYlAMhchSApTEEBkACAAAAAAAAAAAAA0EZGJT1AyICkBSmIIDIAEAMjEEBmioxKQFPYwWTeJqwU1FJPWs55ra47HmYKKdSCetOcU0+FNo+l7uboOhSdRRUrNKz1bXY0aGklTYI5k1u0Ozyv5nhrKmZLigglpXi2nH6IYr2Ol4F0RxXsdLwNvTapyK6TGm8+RXSfcftk9Gd6L9XI/LKr9kO7mamiOK9jpeBdEsV7HS8Db02qcjHpPuGm0+Sj9WMnozbFv5DLr9kO7mamiWK9jpeA0SxXsdLwNvTapyMfq+4ums+Sj9WTJ6M70X6uQy6/ZDu5mpolifY6XgNE8T7HS8Dc00nyUfq+4aaT5KP1Yyei+9F+rkMuv7sO7maeieJ9jpeB4+IoTpycJxcZLamdluHlHPEVcx04xVm7pt7LHnZdRXnKbtrcHd8dnq62fFVR03V8/IbwdsdeKWtLQWRUz8/mpyWKvh/1o5kAGOaQAAAAABoIEB6wUyMSkBkEQpADIxBAZAAgMgYIpC2Nrc/1tPnw/kjvstN6y50es+d0qma1JbU01707nq7o5Q168HTqOGa2nqjbZ+dz3U1VLl082XFpiWH5WPFUU8cc6XGv8Xj+f8AR5RTFMtzOue0FImLgGRTEoIZAhSA9/IrfH+kuw3MvfWUubLrNPIrfH+kuw28vfTpc2XWbMPZcXq+5GZF+PXp4M5cAGIaYAAAAAB56KYlPYCgC5AUpiX76iAyBCkANjc/1lPnw/kiLB1eTn0Zdx2eS2TtNU1VqxvKWuMXqUFqauv8ro9NNSzJsxJK1scTz1FTBKgvE/A2stKEFhZNRinnR1pJPacfk0k8VRTs/wAWx+5n0fE+YqRzKjhKOp2bVtWzhNahgcFCSlCNKMlrTTV1+5t1NFFNqIZqaSVtzuY1PWQypDltO7vvVjxsvKUY06ebFL8b2JL+1nkZFQTxFmk1mT2q/Edvi4Yeqkqnm5pO6Ta1P6n54XCYSnLOpxpRla101ez+ZZlFFFVKemrK2HkJdZDDTOS07u+85jL2nGM6WakvwvYkuEZBU4ynVzkn+GO1X4XxnU4qhharTqKnNrUrtO37jC0MLSbdNU4N6nZpX/cnUout9YylbZ/rb+x1xdVzNne1t9zjMs4JYiySSzIbFbjPWyEpRlSqXin+NbUn/ae3isLhKks6oqUpWtdtX1fM/TCww9JNU/NwTd2k1rf1EuiigqnPbVnfDzEyshiplJSd8Nx8+yjiliqqSss7YtnAecjvt39wKdaMqsNVS2ddP8M7ca4dXCvyOJWCq8nPoy7jErqSZLnNtXUTbVvM1qOogmy1bSrJ/kfgUxKeA9Z0GRO+P9JG5l96ylzX1mpkTvh8yXYbeX3rKXNfWbEPZcXq+5GZH+Ph9PBnKmRiDFNMyABAAAAecAD2ApTG5UAUAIgKVmJbny9BT6Lh8rcIoxTlO6ik/wAPEj2P6mNWg6kb5soNq+p2s+A+awyfxjSaoys9a2d59A3Noyhg4wmrSjSaafA7M6WjqJ82JqbDZJYYNfuc7WU8iVDC5Tu77U/2Pl1i2IgcsoVbQdG27mVi2IVDJWwl2SwsAMlbBdmVi2IU+XCtguz6fuDNLC0m9ippv5GppdhP8pdE2Nxot4OmltdK37M4bR/GchL9u86ipqaiTBLUmG91jg3qVtGg5+RTyZsczOu1ntS27TTxc1Kc5LY5Sa9zba/Y/ISi02ntTaa/NEOZibbbZvrQdFkRvh8yXYbeX3rKXNl1o1MiN8PmS7Dby/8AWUua+s1l2ZF6vuRmR/j4fTwZywIUxjTKUxRSAoBCA88AHsAAABT944Kq0mqc2nrTUZNO/CtR6WR2DhVxMYzV0lKdnsbjsuuLXf5Hf7rbuUcO4qq5LOTatFvZ7j301FDMluZMiyVe3z3PDU1kUuYpcEGU7XPmH9DV5Kp0Jdx+VSnKOqScXxNNPX+TPo2mWD/yn0WcdlTujTr13UptuObFa1bWr31HxU00iCXeCYonsw4H1T1E6OO0ctw+OP8AR0NDLejGMY+anqSW2PArcZ0dLFKrh/OpNKdNySe1amcJTyPxTSazLNJr8fH8jtsFhpU8Kqc7Z0aTTtrWpPYa9HMqYonnlZWwwsZVZLpoYU5LxvtufKkUhTmFoR0T0gyMQCGZACAGRiCMH1DcGebhKT4qd/oeUstqXJT+se89TcWDeDppbXSsvmmcksj8V7HS8DpqiZVQQS8wr4Y4X1K3E5+TLp4pkzPPXhjbWzxa9TOnKS/uk39XcwJUg4txe1Np+9XQOYiu22zfWjA6LIjfD5kuw28v/Tpc2XWaWQ++P9JdhueUD1lLmy6zXh7Mi9X3IzYvx69PBnKlRiUxjTMgQpAZWILg+bA88AHsAAAB0WQO+l8OfYb/AJSPTo82XWjQyB30vhz7Df8AKR6dHmy60aq7PfqX1IzIu0IfTwZx4IUyXoNNHW0suZxio+ZjqSXpPg1HW4XFOrhlVas503Ky4LpnJUshqkoqXnoa0n6L4dZ1uFwrpYVUm03Cm43WpOyZ0lH1rKef0Ww0cOJz1Z1WyzNr31X4nydFMUU5iHQjonpMgiF++8pAZGIIDIAEYPqG4c83B05cVK/0TOd05qcjHpPuOi3DhnYOnHjpW+qZzmg1Tlo9F950lT1rIl9X2Y/+ditp9zAkdWy5mftpw0+N9HseFgKKxGIjCTsqkndrgvd6rnV6E0uUn9EcbnypVLxlaUJNKS402ro3FlBjOWl+3cZNPOpoFEp8Did/Dw8Vruac+VPiacqNJW+ajs9yMm4Yep5yNSUnZqzStr9x4WXlWLqwindxg85cWc1Y8rSDF8tP7+R5s5Nttttt3bett8bfCfpU1smKRmZMDSbvx8fnmflIpJsM7OzYrtK3zQCkQMk0TIpiUAv3wFJ9/esHzYGiAD1gAAA6LIHfS+HPsN/ykenR5sutGhkDvpfDn2G/5SPTo82XWjVXZ79S+pGbF2hD6eDOOAIzJNM6Knlji0klmWSSX4OL5nb4LEyqYRVJ2zpUm3bUr2exHg0ch6Moxl52prSeyPCrnR0sKqWH80m2oU3FN7XZM6Wkl1MMTzzurYYnO1kymihSkrG+yx8kQRFsKcwtCOji0gyMSlIZAlynyAZGBSMH1HcSbWCptbVSuvkmcisssV7HR8Tr9wIZ2EpR46dvqjyFkPS5Wf0idLPl1McEvMO2GONtStxOekzKeCZMzy14YX1s4qpNybk9rbb97dzEzxMM2corXmykvfZ2PyOaiTvZ/PjOgWjAzBC3PkFKYlIAUXIQFAABpgA9IAAAOiyB30vhz7Df8pHp0ebLrRoZA76Xw59hv+Uj06PNl1o1V2e/UvqRmxdoQ+ngzjgAZRpHpRyixiSSrTstS+7HZ5L7vwr0lTqyXnVeLUtWeuBrgeravy2Hzo/fc71tP4kP5I9lNVzYJixbvhZts8lRRy5kFrW8UkfUJ7h4JK7o00uNqyMI7j4BuypUW+JW7zVy73pLnw6zislbf1dHn9jNWfPglT4ZWbTvbHDW7bDLp5EybJc3ONWvuV9p9CqbiYKO2jSXvsjGG4+BepUqTfErPtPJ8ovqqfxH/FniZBr/ALS+HLsLHPghqVIzaxtjhr8LcSS5MyOnc7OPXh5e/A7KpuLgY+lRpL32Qp7jYGXo0qT91mc15RfWUebLrQ8nS/5K3Nj1nz1iDrWYza88Nl9FuJcxH1bP5x6NGO22m/A6We4+BTs6VJPidkWnuLgpejRpP3WZxuXe+n8OPae35PF/xVPiL+KLBPgiqXIzawvjhq8LcSTJMyGnU7OPVh5+56W7O6lHC0XGDipWzacFrs9mtLYle+s4fSLGctP9u4mU2+63P7jyzKrKyZFNahbhUN1ZNrQ/nkaVJSS4JabV27O7S1/PcznJttvW27v82yAGce4GRiZEBQQtyApUYlIC/PqBPvYCA1AAekAAAHRZA76Xw59hv+Uj06PNl1o0Mgd9L4c+w3/KR6dHmy60aq7PfqX1IzYu0IfTwZxwAMo0gEwAD9amKqSVpTm1xOTa+jZ+UJtO6bTWxrU17mQpW28WxZH61MROXpTlLnSb+l2SnUlF3i3F8adn9UfmUjbbvf5+4sj0MNgcViFnQjOoou173s9ttbPwkqtGTg3KElqkk2n7nY7byd+on8T/AMo5XKnfdXndiPZNp1BTwTru7fP31bTxy57inxymlZLkefOpKTvJtvjbbf7mVLETj6MpR4fwtrqPxKeJN3v85nssjOU23dtt8Lbu382REKfIBkYFIDIAEAMjEEBmgQqIACAA1gAfuAAADosgd9L4c+w6LK/cOtiZU3TzbRUk8522tfkfP8LiZ05xqQebKLun97UdTDLyrZXoxb4Xdq/y4DTpp8hyHJnXWN8L+epYWZm1Mifn1OlWeFsffga2hOL/AE+l4DQnF/p9LwNvT2ryEek+4ae1eQj0n3Fyej+89/8AEZVf3Yd3M1NCcX+n0vAaE4v9PpeBt6e1eQj0n3DT2ryEek+4ZPR/ee/+Iyq/uw7uZqaE4v8AT6XgNCcX+n0vA29PavIR6T7hp7V5CPSfcMno/vPf/EZVf3Yd3M1NCcX+n0vAaE4v9PpeBt6e1eQj0n3DT2ryEek+4ZPR/ee/kTKr+7Du5nv5Jbl1MNTnGpm3lO6zXfVZI4fKl/8Abrc/uPUrZdVnFqNKEW9krt2/OzOYnNybk3dtttva29bbPisnyXKhkyr2T1++3zPqkkTlNimzbJtavngQAGaaJSmJSAyICkAMjEEBmQFICGRiCAyAILA1wAfsAAAAQoABCgAgKACAoAIUAAC4ABSmJUAW4CBAUpiUgMiApAUpiCAzIgCAoAIDXAB+wAAAAAAAAAAAAAAAAAAAAAAAAKUxKAUAEBSmJUQGQIikAMjEEBbgtynyDXAB+wAAAAAAAAAAAAAAAAAAAAAAAAAQAAMu8AAF4fv8yAjBUXwAPkFKvv8AYAgKAD5B/9k=;" vertex="1" parent="1">
          <mxGeometry x="170" y="373" width="60" height="60" as="geometry" />
        </mxCell>
        <mxCell id="z3T6Kc_sz7TtANk57Cug-37" value="EC2 &lt;br&gt;Instance&lt;br&gt;" style="text;html=1;align=center;verticalAlign=middle;resizable=0;points=[];autosize=1;strokeColor=none;fillColor=none;" vertex="1" parent="1">
          <mxGeometry x="165" y="434" width="70" height="40" as="geometry" />
        </mxCell>
        <mxCell id="z3T6Kc_sz7TtANk57Cug-38" value="Amazon S3" style="outlineConnect=0;fontColor=#232F3E;gradientColor=#60A337;gradientDirection=north;fillColor=#277116;strokeColor=#ffffff;dashed=0;verticalLabelPosition=bottom;verticalAlign=top;align=center;html=1;fontSize=12;fontStyle=0;aspect=fixed;shape=mxgraph.aws4.resourceIcon;resIcon=mxgraph.aws4.s3;labelBackgroundColor=none;" vertex="1" parent="1">
          <mxGeometry x="110" y="130" width="78" height="78" as="geometry" />
        </mxCell>
        <mxCell id="z3T6Kc_sz7TtANk57Cug-44" value="MySQL" style="text;html=1;align=center;verticalAlign=middle;resizable=0;points=[];autosize=1;strokeColor=none;fillColor=none;" vertex="1" parent="1">
          <mxGeometry x="230" y="698" width="60" height="30" as="geometry" />
        </mxCell>
        <mxCell id="z3T6Kc_sz7TtANk57Cug-45" value="Postgress" style="text;html=1;align=center;verticalAlign=middle;resizable=0;points=[];autosize=1;strokeColor=none;fillColor=none;" vertex="1" parent="1">
          <mxGeometry x="225" y="738" width="80" height="30" as="geometry" />
        </mxCell>
        <mxCell id="z3T6Kc_sz7TtANk57Cug-46" value="Mariadb" style="text;html=1;align=center;verticalAlign=middle;resizable=0;points=[];autosize=1;strokeColor=none;fillColor=none;" vertex="1" parent="1">
          <mxGeometry x="225" y="778" width="70" height="30" as="geometry" />
        </mxCell>
      </root>
    </mxGraphModel>
  </diagram>
</mxfile>
